<?xml version="1.0" encoding="UTF-8" standalone="no"?>
<!-- Created with Inkscape (http://www.inkscape.org/) -->

<svg
   xmlns:dc="http://purl.org/dc/elements/1.1/"
   xmlns:cc="http://creativecommons.org/ns#"
   xmlns:rdf="http://www.w3.org/1999/02/22-rdf-syntax-ns#"
   xmlns:svg="http://www.w3.org/2000/svg"
   xmlns="http://www.w3.org/2000/svg"
   xmlns:sodipodi="http://sodipodi.sourceforge.net/DTD/sodipodi-0.dtd"
   xmlns:inkscape="http://www.inkscape.org/namespaces/inkscape"
   width="118.90538mm"
   height="136.01292mm"
   viewBox="0 0 118.90538 136.01292"
   version="1.1"
   id="svg8"
   inkscape:version="0.92.1 r"
   sodipodi:docname="Logo.svg"
   inkscape:export-filename="/home/aczombie/Documentos/Dropbox/2017-1/Ingenieria de Software/Logo.png"
   inkscape:export-xdpi="128.16914"
   inkscape:export-ydpi="128.16914">
  <defs
     id="defs2" />
  <sodipodi:namedview
     id="base"
     pagecolor="#ffffff"
     bordercolor="#666666"
     borderopacity="1.0"
     inkscape:pageopacity="0.0"
     inkscape:pageshadow="2"
     inkscape:zoom="0.7"
     inkscape:cx="420.70479"
     inkscape:cy="411.49526"
     inkscape:document-units="mm"
     inkscape:current-layer="layer1"
     showgrid="false"
     inkscape:window-width="1362"
     inkscape:window-height="746"
     inkscape:window-x="0"
     inkscape:window-y="18"
     inkscape:window-maximized="1" />
  <metadata
     id="metadata5">
    <rdf:RDF>
      <cc:Work
         rdf:about="">
        <dc:format>image/svg+xml</dc:format>
        <dc:type
           rdf:resource="http://purl.org/dc/dcmitype/StillImage" />
        <dc:title></dc:title>
      </cc:Work>
    </rdf:RDF>
  </metadata>
  <g
     inkscape:label="Capa 1"
     inkscape:groupmode="layer"
     id="layer1"
     transform="translate(-35.817183,-77.420358)">
    <path
       style="fill:#800080;stroke-width:0.99999994"
       d="m 253.46484,609.4707 c 19.91338,68.70997 81.19255,72.04587 131.4961,64.20118 V 293.43359 c -0.33921,0.0773 -0.53904,0.0847 -0.90235,0.17188 -6.49937,1.56006 -7.861,2.23805 -11.66211,5.8125 -2.36677,2.22566 -5.07292,5.59509 -6.01367,7.48828 -3.6528,7.3509 -6.48354,23.20094 -8.56445,47.94922 -0.72058,8.56959 -2.02235,17.45073 -2.89258,19.73437 -1.93543,5.0791 -3.62769,23.342 -4.21484,45.48633 -0.24187,9.12114 -0.77643,17.76262 -1.1875,19.20508 -1.17859,4.13545 -1.23725,19.74048 -0.16602,43.46484 0.88203,19.53464 0.48341,30.52512 -1.12304,31.02149 -0.30233,0.0934 -2.00393,-0.31121 -3.78126,-0.89844 -4.66069,-1.53997 -7.03656,-4.90911 -8.90429,-12.62305 -2.29299,-9.47017 -8.7086,-43.36762 -10.44922,-55.21289 -0.80919,-5.50658 -3.64584,-17.81714 -6.30469,-27.35742 -5.77241,-20.71117 -6.5526,-27.49505 -5.52539,-48.08008 0.86942,-17.42316 0.20962,-25.28313 -2.99023,-35.51172 -4.12204,-13.18157 -12.56336,-18.22319 -24.39258,-14.56836 -8.77787,2.71207 -11.85111,7.95248 -14.72852,25.11524 -1.82641,10.89306 -2.36635,31.27965 -1.09375,41.32812 0.58319,4.60491 0.76126,12.55757 0.39453,17.67188 -0.36673,5.1143 -4.7e-4,17.09842 0.81446,26.63281 0.81492,9.53431 1.81976,22.05482 2.23242,27.82227 0.41265,5.76752 2.06645,19.38626 3.67578,30.26367 4.10721,27.76033 5.05831,36.42745 4.35352,39.70312 -1.17728,5.47148 -1.5157,12.66026 -1.29883,27.65625 0.12013,8.30979 -0.12663,17.09767 -0.54883,19.5293 -1.32639,7.63945 -7.55087,17.62458 -15.95703,25.59375 -5.71352,5.41656 -8.42223,7.90893 -10.26563,8.63867 z"
       id="path4579"
       transform="scale(0.26458333)"
       inkscape:connector-curvature="0"
       sodipodi:nodetypes="ccccccccccccccccscscssscsccccc" />
    <path
       style="fill:#a0892c;stroke-width:0.99999994"
       d="m 384.96094,658.36567 c 0.18695,3.81008 1.02421,10.20251 0.36394,14.9655 -0.13849,0.99899 -1.45336,-0.0379 -1.62154,0.9957 -5.79559,35.61805 -27.16916,92.37383 1.2576,130.55204 1.60349,0.0144 3.94136,-0.0674 4.74804,0.0391 5.57469,0.73538 18.0847,0.44416 25.39454,-0.58985 h 0.002 c 1.65468,-0.2339 8.33573,-2.23626 14.84765,-4.44921 25.19615,-8.56169 36.56774,-19.75392 54.17383,-53.32618 11.54487,-22.01446 16.34516,-34.04711 17.39844,-43.60546 1.67859,-15.23414 11.52535,-63.0382 17.91016,-89.02539 -1.08753,1.52687 -2.13117,3.07493 -3.31836,4.55273 -1.93576,2.40961 -9.05058,1.72195 -11.23631,3.99688 -2.18572,2.27494 -10.04889,-1.0737 -12.466,1.06135 -2.4171,2.13506 -11.5103,5.20769 -14.1402,7.19766 -2.62991,1.98997 -8.39189,7.94703 -11.21601,9.7867 -2.82412,1.83968 -5.23541,4.61309 -8.23516,6.29726 -25.42621,13.94488 -42.18181,16.40976 -63.00202,13.30356 -3.44648,0.2332 -7.40634,-1.8135 -10.86055,-1.75235 z"
       id="path4621"
       transform="scale(0.26458333)"
       inkscape:connector-curvature="0"
       sodipodi:nodetypes="cssccccccccscccccccc" />
    <path
       style="fill:#447821;stroke-width:0.99999994"
       d="m 253.46484,609.4707 c -1.58997,0.62943 -2.54322,-0.0369 -4.14257,-1.45312 -4.87492,-4.31679 -14.42715,-19.81211 -23.22461,-37.67578 -1.84546,-3.74725 -5.08182,-9.57597 -7.19336,-12.95313 -2.11151,-3.37723 -6.0391,-10.87638 -8.72657,-16.66601 -6.34248,-13.66379 -11.72926,-22.07902 -19.45117,-30.38672 -14.48793,-15.58685 -36.45678,-22.07647 -48.71875,-14.39258 -4.41651,2.76756 -6.11772,5.4084 -6.60547,10.24805 -0.74217,7.36456 12.25001,37.78151 27.47461,64.32226 15.22442,26.54041 30.19177,57.97706 40.40039,84.85547 11.25687,29.63822 27.79234,58.39617 53.65625,93.31836 15.28978,20.64465 23.33981,30.67177 28.61914,35.64062 5.71085,5.3751 22.50343,13.87476 33.96289,17.19141 18.89487,5.46879 24.93071,6.03428 45.27149,4.25 7.86301,-0.68978 15.14174,-0.93566 20.17383,-0.89062 V 673.67188 c -6.8115,0.0199 -16.29535,-1.04798 -23.79297,-2.05469 -3.70511,-0.3699 -7.3911,-0.84769 -11.04883,-1.43555 -3.65772,-0.58786 -7.28715,-1.28662 -10.87891,-2.09766 -3.59175,-0.81103 -7.14709,-1.73402 -10.65429,-2.77343 -3.50721,-1.03942 -6.96703,-2.1938 -10.3711,-3.4668 -3.40407,-1.273 -6.75085,-2.66399 -10.0332,-4.17578 -3.28235,-1.51179 -6.50053,-3.1446 -9.64258,-4.90039 -3.14204,-1.75579 -6.20825,-3.63564 -9.1914,-5.64063 -2.98316,-2.00499 -5.88377,-4.13513 -8.68946,-6.39453 -2.80568,-2.2594 -5.51733,-4.647 -8.12695,-7.16601 -2.60962,-2.51901 -5.11674,-5.1693 -7.51172,-7.95313 -2.39498,-2.78383 -4.67809,-5.702 -6.83984,-8.75586 -1.66807,-2.35643 -3.19545,-4.86677 -4.71485,-7.38672 z"
       id="path4624"
       transform="scale(0.26458333)"
       inkscape:connector-curvature="0"
       sodipodi:nodetypes="ccccccccsccccccccsccsscccsscc" />
    <path
       style="fill:#008080;stroke-width:0.99999994"
       d="m 384.96094,673.67188 c 3.45421,-0.0611 6.90899,-0.18868 10.35547,-0.42188 3.73574,-0.25277 7.46308,-0.60477 11.17187,-1.05469 3.70879,-0.44992 7.39925,-0.99681 11.0625,-1.63867 3.66325,-0.64186 7.29931,-1.37844 10.89844,-2.20703 3.59912,-0.82859 7.16131,-1.74965 10.67773,-2.75977 3.51642,-1.01012 6.98722,-2.11043 10.40235,-3.29687 3.41512,-1.18644 6.77506,-2.45885 10.07031,-3.81641 3.29525,-1.35756 6.52485,-2.80075 9.68164,-4.32422 3.15679,-1.52346 6.24049,-3.12832 9.24023,-4.8125 2.99975,-1.68417 5.91612,-3.44743 8.74024,-5.28711 2.82412,-1.83967 5.55564,-3.75612 8.18555,-5.74609 2.6299,-1.98997 5.15711,-4.05244 7.57421,-6.1875 2.41711,-2.13505 4.72444,-4.34225 6.91016,-6.61719 2.18573,-2.27493 4.24979,-4.61773 6.18555,-7.02734 1.18719,-1.4778 2.23083,-3.02586 3.31836,-4.55273 1.83057,-7.45074 3.50268,-13.86336 4.46093,-16.27149 1.69773,-4.26618 6.72964,-15.63722 11.18164,-25.26953 18.25864,-39.50438 38.37986,-85.58996 43.32227,-99.22461 8.31175,-22.92956 8.50093,-39.23318 0.55859,-48.18359 -3.62645,-4.08556 -9.18005,-5.81565 -13.9375,-4.33789 -8.14235,2.53012 -17.73901,18.80094 -24.2871,41.18164 -5.76439,19.70199 -20.50439,47.19128 -39.23047,73.16015 -3.19971,4.43728 -7.84967,11.83482 -10.33399,16.43946 -5.00523,9.27707 -7.91603,11.68643 -13.01367,10.77148 -3.78282,-0.67892 -11.19478,-4.99936 -11.76953,-6.85938 -0.21785,-0.70577 -0.21928,-3.16085 -0.002,-5.45703 0.71126,-7.51287 9.10109,-56.92648 11.04101,-65.02929 2.93964,-12.2781 3.98935,-24.3946 4.28906,-49.47071 0.1519,-12.71127 0.73067,-26.78464 1.28516,-31.27343 2.56365,-20.75305 3.09354,-45.22658 1.17773,-54.36914 -2.80168,-13.37095 -10.86686,-19.74783 -22.82812,-18.04883 -5.96122,0.84675 -9.75292,4.08975 -13.00195,11.125 -3.32459,7.19877 -5.1756,18.09564 -5.2168,30.69922 -0.0178,4.89795 -0.27198,13.92524 -0.56641,20.06054 -0.29416,6.13527 -0.54959,12.68447 -0.57226,14.55469 -0.0199,1.8703 -0.72545,5.6222 -1.56836,8.33594 -0.84284,2.7137 -3.06546,12.47178 -4.93945,21.68554 -1.87386,9.21378 -4.5249,19.68734 -5.89063,23.2754 -3.25761,8.55862 -5.61364,17.99383 -9.37695,37.5332 -4.13076,21.44734 -5.69373,24.46414 -10.57813,20.42383 -2.19148,-1.81437 -2.31153,-2.36004 -2.16601,-10.0586 0.18825,-9.92602 -0.4869,-23.62389 -2.42969,-49.20898 -0.81124,-10.68669 -1.3804,-24.4056 -1.26172,-30.48633 0.11762,-6.08073 -0.0355,-18.98532 -0.33789,-28.67773 -0.9193,-29.3755 -0.30933,-56.88856 1.51758,-68.5 2.55246,-16.22174 0.85727,-25.4569 -6.35156,-34.63086 -4.25447,-5.41418 -6.26129,-6.06014 -13.64844,-4.37696 z"
       id="path4496"
       transform="scale(0.26458333)"
       inkscape:connector-curvature="0" />
  </g>
</svg>
